<?xml version="1.0" encoding="utf-8"?>
<!-- Generator: Adobe Illustrator 27.5.0, SVG Export Plug-In . SVG Version: 6.00 Build 0)  -->
<svg version="1.1" xmlns="http://www.w3.org/2000/svg" xmlns:xlink="http://www.w3.org/1999/xlink" x="0px" y="0px"
	 viewBox="0 0 750 500" style="enable-background:new 0 0 750 500;" xml:space="preserve">
<g id="BACKGROUND">
	<rect style="fill:#FFFFFF;" width="750" height="500"/>
</g>
<g id="OBJECTS">
	<path style="fill:#D7CCFF;" d="M132.5,138.64c0,0-55.606,14.313-71.157,71.211s33.323,95.312,84.419,140.53
		c51.096,45.218,76.829,81.997,76.829,81.997h292.493c0,0,116.459-28.14,143.487-106.141s-36.755-90.768-53.417-113.635
		c-16.662-22.867-17.303-71.988-23.968-127.033c-6.665-55.045-95.527-92.071-153.287-39.494s-93.305,102.438-153.287,98.983
		C214.63,141.602,194.771,126.051,132.5,138.64z"/>
	<path style="fill:#F4F3FE;" d="M169.902,432.448c0,0-51.737-38.98-61.659-105.6c-9.922-66.62,75.125-105.6,90.716-131.823
		c15.592-26.223,17.009-104.891,92.843-121.9c75.833-17.009,108.435,49.611,128.988,70.872s77.251,12.048,124.027,10.631
		c46.776-1.417,120.483,48.193,90.716,158.045c-29.766,109.852-52.445,119.774-52.445,119.774H169.902z"/>
	<g>
		<path style="fill:none;stroke:#F2C73C;stroke-linecap:round;stroke-linejoin:round;stroke-miterlimit:10;" d="M213.952,432.921
			c0,0-111.27-91.898-42.523-217.342"/>
		<path style="fill:#F2C73C;" d="M167.285,372.033c0,0-10.353-12.902-18.278-7.15C138.591,372.443,156.29,384.617,167.285,372.033z"
			/>
		<path style="fill:#F2C73C;" d="M167.047,370.44c0,0-4.256-15.986,5.075-18.96C184.383,347.572,183.698,369.042,167.047,370.44z"/>
		<path style="fill:#F2C73C;" d="M158.806,353.276c0,0-4.256-15.986,5.075-18.96C176.143,330.408,175.458,351.878,158.806,353.276z"
			/>
		<path style="fill:#F2C73C;" d="M152.629,329.329c0,0-4.256-15.986,5.075-18.96C169.966,306.462,169.281,327.931,152.629,329.329z"
			/>
		<path style="fill:#F2C73C;" d="M149.01,305.599c0,0-0.473-16.536,9.291-17.289C171.132,287.321,165.538,308.061,149.01,305.599z"
			/>
		<path style="fill:#F2C73C;" d="M150.717,278.76c0,0-0.473-16.536,9.291-17.289C172.839,260.482,167.245,281.221,150.717,278.76z"
			/>
		<path style="fill:#F2C73C;" d="M157.944,243.538c0,0,4.817-15.826,14.313-13.43C184.735,233.256,172.828,251.135,157.944,243.538z
			"/>
		<path style="fill:#F2C73C;" d="M158.889,354.225c0,0-5.283-15.677-14.703-13.001C131.806,344.739,144.236,362.258,158.889,354.225
			z"/>
		<path style="fill:#F2C73C;" d="M152.603,329.862c0,0-5.283-15.677-14.703-13.001C125.52,320.375,137.95,337.894,152.603,329.862z"
			/>
		<path style="fill:#F2C73C;" d="M149.006,305.299c0,0-0.27-16.54-10.058-16.854C126.085,288.034,132.606,308.501,149.006,305.299z"
			/>
		<path style="fill:#F2C73C;" d="M150.422,278.46c0,0-0.27-16.54-10.058-16.854C127.501,261.194,134.021,281.661,150.422,278.46z"/>
		<path style="fill:#F2C73C;" d="M158.851,243.479c0,0-0.27-16.54-10.058-16.854C135.93,226.213,142.451,246.68,158.851,243.479z"/>
		<path style="fill:#F2C73C;" d="M170.392,216.782c0,0,15.249-6.413,11.893-15.613C177.876,189.078,161.311,202.754,170.392,216.782
			z"/>
	</g>
	<g>
		<path style="fill:none;stroke:#F2C73C;stroke-linecap:round;stroke-linejoin:round;stroke-miterlimit:10;" d="M594.68,194.317
			c0,0-12.757,25.514-4.252,60.95c8.505,35.436,36.854,75.833-38.98,177.181"/>
		<path style="fill:#F2C73C;" d="M597.771,347.518c0,0,2.33-16.378-7.287-18.224C577.845,326.868,581.071,348.105,597.771,347.518z"
			/>
		<path style="fill:#F2C73C;" d="M601.627,320.109c0,0,2.33-16.378-7.288-18.224C581.701,299.459,584.927,320.696,601.627,320.109z"
			/>
		<path style="fill:#F2C73C;" d="M600.623,291.919c0,0-5.742-15.514-15.08-12.562C573.272,283.235,586.214,300.38,600.623,291.919z"
			/>
		<path style="fill:#F2C73C;" d="M594.871,271.539c0,0-2.023-16.418-11.789-15.692C570.248,256.802,578.903,276.462,594.871,271.539
			z"/>
		<path style="fill:#F2C73C;" d="M588.253,241.764c0,0-4.955-15.783-14.429-13.305C561.374,231.716,573.436,249.49,588.253,241.764z
			"/>
		<path style="fill:#F2C73C;" d="M588.817,215.302c0,0,0.471-16.536-9.293-17.288C566.693,197.027,572.29,217.765,588.817,215.302z"
			/>
		<path style="fill:#F2C73C;" d="M592.691,197.98c0,0,13.639-9.362,8.493-17.694C594.422,169.336,580.963,186.077,592.691,197.98z"
			/>
		<path style="fill:#F2C73C;" d="M597.619,347.556c0,0,8.75-14.039,17.302-9.267C626.158,344.56,610.029,358.747,597.619,347.556z"
			/>
		<path style="fill:#F2C73C;" d="M601.875,317.97c0,0,8.75-14.039,17.302-9.267C630.415,314.974,614.285,329.16,601.875,317.97z"/>
		<path style="fill:#F2C73C;" d="M600.201,291.786c0,0,2.53-16.348,12.269-15.319C625.269,277.818,616.01,297.201,600.201,291.786z"
			/>
		<path style="fill:#F2C73C;" d="M594.871,271.283c0,0,2.53-16.348,12.269-15.319C619.939,257.315,610.68,276.698,594.871,271.283z"
			/>
		<path style="fill:#F2C73C;" d="M588.203,241.38c0,0,2.53-16.348,12.269-15.319C613.27,227.413,604.011,246.796,588.203,241.38z"/>
		<path style="fill:#F2C73C;" d="M588.821,214.79c0,0,2.53-16.348,12.269-15.319C613.889,200.822,604.63,220.205,588.821,214.79z"/>
	</g>
	<g>
		<path style="fill:#6958FE;" d="M227.513,406.284c0,0-25.473-53.81-44.791-81.737c-19.318-27.927-29.969-66.553-0.063-70.374
			C212.566,250.352,238.703,336.484,227.513,406.284z"/>
		<path style="fill:#3500B7;" d="M182.659,254.173c-2.653,0.339-4.981,0.957-7.018,1.812l16.156,26.669
			c0,0,32.474,62.519,35.716,123.63C238.703,336.484,212.566,250.352,182.659,254.173z"/>
		<path style="fill:none;stroke:#341F78;stroke-miterlimit:10;" d="M191.796,282.655c0,0,32.474,62.519,35.716,123.63"/>
	</g>
	<g>
		<path style="fill:#62B1CC;" d="M185.878,432.448c0,0-43.032,1.837-69.219-34.727c-26.187-36.565-5.67-96.029-5.67-96.029
			s0.709,32.977,40.398,47.139C191.075,362.993,200.524,408.352,185.878,432.448z"/>
		<path style="fill:#77C6E9;" d="M185.878,432.448c-1.654-18.427-13.938-18.427-38.01-39.689
			c-24.071-21.262-28.374-53.143-28.374-53.143s-9.569-20.558-8.505-37.925c0,0-20.516,59.464,5.67,96.029
			C142.845,434.286,185.878,432.448,185.878,432.448z"/>
		<path style="fill:none;stroke:#508BA3;stroke-linecap:round;stroke-linejoin:round;stroke-miterlimit:10;" d="M119.494,339.617
			c0,0,4.302,31.881,28.374,53.143c24.072,21.262,36.356,21.262,38.01,39.689"/>
	</g>
	<g>
		<path style="fill:#6958FE;" d="M524.234,400.13c0,0,25.473-53.81,44.791-81.737s29.969-66.553,0.063-70.374
			C539.181,244.198,513.044,330.33,524.234,400.13z"/>
		<path style="fill:#3500B7;" d="M569.088,248.02c2.653,0.339,4.981,0.957,7.018,1.812l-16.156,26.669
			c0,0-32.474,62.519-35.716,123.63C513.044,330.33,539.181,244.198,569.088,248.02z"/>
		<path style="fill:none;stroke:#341F78;stroke-miterlimit:10;" d="M559.95,276.501c0,0-32.474,62.519-35.716,123.63"/>
	</g>
	<g>
		<path style="fill:#62B1CC;" d="M524.911,432.448c0,0,43.032,1.837,69.219-34.727c26.187-36.565,5.67-96.029,5.67-96.029
			s-0.709,32.977-40.398,47.139C519.713,362.993,510.264,408.352,524.911,432.448z"/>
		<path style="fill:#77C6E9;" d="M524.911,432.448c1.654-18.427,13.938-18.427,38.01-39.689
			c24.072-21.262,28.374-53.143,28.374-53.143s9.569-20.558,8.505-37.925c0,0,20.516,59.464-5.67,96.029
			C567.943,434.286,524.911,432.448,524.911,432.448z"/>
		<path style="fill:none;stroke:#508BA3;stroke-linecap:round;stroke-linejoin:round;stroke-miterlimit:10;" d="M591.294,339.617
			c0,0-4.302,31.881-28.374,53.143c-24.072,21.262-36.356,21.262-38.01,39.689"/>
	</g>
	<path style="fill:#D7CCFF;" d="M596.035,440.953h-442.22c-2.159,0-3.91-1.75-3.91-3.91v-0.686c0-2.159,1.75-3.909,3.91-3.909
		h442.22c2.159,0,3.91,1.75,3.91,3.909v0.686C599.944,439.203,598.194,440.953,596.035,440.953z"/>
	<g>
		<path style="fill:#A8852D;" d="M324.735,432.448h-148.49l-11.446-93.483c-0.627-5.121,3.369-9.636,8.528-9.636h151.409V432.448z"
			/>
	</g>
	<g>
		<g>
			<circle style="fill:#9281FF;" cx="250.49" cy="272.235" r="17.5"/>
			<path style="fill:#8078EF;" d="M261.357,281.576c-9.665,0-17.5-7.835-17.5-17.5c0-3.213,0.881-6.214,2.392-8.802
				c-7.612,1.899-13.259,8.761-13.259,16.961c0,9.665,7.835,17.5,17.5,17.5c6.452,0,12.074-3.502,15.108-8.698
				C264.238,281.376,262.822,281.576,261.357,281.576z"/>
		</g>
		<g>
			<circle style="fill:#9281FF;" cx="215.044" cy="228.573" r="11.804"/>
			<path style="fill:#8078EF;" d="M222.374,234.874c-6.519,0-11.804-5.285-11.804-11.804c0-2.167,0.594-4.191,1.613-5.937
				c-5.134,1.281-8.943,5.91-8.943,11.44c0,6.519,5.285,11.804,11.804,11.804c4.352,0,8.144-2.362,10.191-5.867
				C224.317,234.739,223.362,234.874,222.374,234.874z"/>
		</g>
		<g>
			<path style="fill:#9281FF;" d="M256.803,228.195c0,3.487-2.826,6.313-6.313,6.313c-3.487,0-6.313-2.826-6.313-6.313
				c0-3.487,2.827-6.313,6.313-6.313C253.976,221.882,256.803,224.708,256.803,228.195z"/>
			<path style="fill:#8078EF;" d="M254.41,231.565c-3.487,0-6.313-2.827-6.313-6.313c0-1.159,0.318-2.242,0.863-3.175
				c-2.746,0.685-4.783,3.161-4.783,6.119c0,3.487,2.827,6.313,6.313,6.313c2.328,0,4.356-1.263,5.45-3.138
				C255.449,231.493,254.939,231.565,254.41,231.565z"/>
		</g>
	</g>
	<g>
		<g>
			
				<ellipse transform="matrix(0.9872 -0.1593 0.1593 0.9872 -36.6998 84.5143)" style="fill:#9281FF;" cx="508.752" cy="271.148" rx="17.5" ry="17.5"/>
			<path style="fill:#8078EF;" d="M497.884,280.488c9.665,0,17.5-7.835,17.5-17.5c0-3.213-0.881-6.214-2.392-8.802
				c7.612,1.899,13.259,8.761,13.259,16.961c0,9.665-7.835,17.5-17.5,17.5c-6.452,0-12.074-3.501-15.108-8.698
				C495.004,280.289,496.419,280.488,497.884,280.488z"/>
		</g>
		<g>
			<circle style="fill:#9281FF;" cx="544.198" cy="227.485" r="11.804"/>
			<path style="fill:#8078EF;" d="M536.868,233.786c6.519,0,11.804-5.285,11.804-11.804c0-2.167-0.594-4.191-1.613-5.937
				c5.134,1.281,8.943,5.909,8.943,11.44c0,6.519-5.285,11.804-11.804,11.804c-4.352,0-8.144-2.362-10.191-5.867
				C534.925,233.651,535.879,233.786,536.868,233.786z"/>
		</g>
		<g>
			<path style="fill:#9281FF;" d="M502.438,227.107c0,3.487,2.827,6.313,6.313,6.313c3.487,0,6.313-2.827,6.313-6.313
				c0-3.487-2.826-6.313-6.313-6.313C505.265,220.794,502.438,223.621,502.438,227.107z"/>
			<path style="fill:#8078EF;" d="M504.831,230.477c3.487,0,6.313-2.826,6.313-6.313c0-1.159-0.318-2.242-0.863-3.175
				c2.746,0.685,4.783,3.161,4.783,6.119c0,3.487-2.826,6.313-6.313,6.313c-2.328,0-4.356-1.263-5.45-3.138
				C503.792,230.405,504.303,230.477,504.831,230.477z"/>
		</g>
	</g>
	<g>
		<g>
			
				<rect x="437.69" y="317.716" transform="matrix(0.9755 0.22 -0.22 0.9755 94.1117 -99.8746)" style="fill:#1E1551;" width="115.699" height="109.904"/>
			<g>
				
					<rect x="443.144" y="320.746" transform="matrix(0.9755 0.22 -0.22 0.9755 91.0745 -100.8658)" style="fill:#FFFFFF;" width="110.657" height="75.578"/>
				<g>
					<polygon style="fill:#F7F9F9;" points="436.187,383.228 544.134,407.569 452.812,309.501 					"/>
					<path style="fill:#ACA2DD;" d="M531.573,388.072l-46.81-10.555c0,0,19.374-32.761,31.686-31.447
						C528.761,347.385,531.573,388.072,531.573,388.072z"/>
					<path style="fill:#8D85C1;" d="M507.02,365.36c2.064-8.688,6.862-15.893,9.424-19.289
						c-12.312-1.305-31.681,31.447-31.681,31.447l26.106,5.886C508.178,379.004,505.361,372.345,507.02,365.36z"/>
					<path style="fill:#D7CCFF;" d="M452.143,370.162l58.564,13.206c0,0-9.877-30.294-18.276-38.327
						C484.032,337.006,469.946,350.202,452.143,370.162z"/>
					<path style="fill:#D7CCFF;" d="M509.175,338.948c-0.788,3.496-4.261,5.69-7.757,4.902c-3.496-0.788-5.69-4.261-4.902-7.757
						c0.788-3.496,4.261-5.69,7.757-4.902C507.769,331.98,509.963,335.453,509.175,338.948z"/>
					<path style="fill:#ACA2DD;" d="M473.011,364.488c0.801-10.484,6.05-17.36,9.989-21.215
						c-8.092,2.601-18.592,13.139-30.856,26.889l22.473,5.067C473.389,372.421,472.674,368.898,473.011,364.488z"/>
				</g>
			</g>
		</g>
		<g>
			
				<rect x="349.061" y="252.852" transform="matrix(0.98 0.1989 -0.1989 0.98 71.9917 -77.0575)" style="fill:#291A68;" width="140.89" height="133.833"/>
			<g>
				
					<rect x="355.331" y="256.469" transform="matrix(0.98 0.1989 -0.1989 0.98 68.618 -78.0398)" style="fill:#FFFFFF;" width="134.751" height="92.033"/>
				<g>
					<polygon style="fill:#F7F9F9;" points="347.524,334.181 479.582,360.985 365.831,243.987 					"/>
					<path style="fill:#ACA2DD;" d="M463.779,337.578l-57.265-11.623c0,0,22.728-40.393,37.751-39.115
						S463.779,337.578,463.779,337.578z"/>
					<path style="fill:#8D85C1;" d="M433.292,310.57c2.285-10.632,7.938-19.529,10.968-23.731
						c-15.023-1.266-37.745,39.116-37.745,39.116l31.936,6.482C435.059,327.151,431.455,319.118,433.292,310.57z"/>
					<path style="fill:#D7CCFF;" d="M366.608,317.855l71.645,14.542c0,0-12.818-36.622-23.255-46.182
						C404.561,276.654,387.759,293.089,366.608,317.855z"/>
					<path style="fill:#D7CCFF;" d="M435.223,278.359c-0.868,4.276-5.038,7.039-9.315,6.171c-4.276-0.868-7.039-5.038-6.171-9.315
						c0.868-4.276,5.038-7.039,9.315-6.171C433.328,269.913,436.091,274.083,435.223,278.359z"/>
					<path style="fill:#ACA2DD;" d="M391.864,310.401c0.701-12.785,6.91-21.294,11.604-26.09
						c-9.784,3.379-22.29,16.483-36.861,33.544l27.492,5.58C392.533,320.048,391.569,315.778,391.864,310.401z"/>
				</g>
			</g>
		</g>
		<g>
			
				<rect x="253.63" y="259.564" transform="matrix(0.9788 -0.2047 0.2047 0.9788 -61.8006 75.6268)" style="fill:#341F78;" width="162.156" height="154.035"/>
			<g>
				
					<rect x="252.685" y="263.891" transform="matrix(0.9788 -0.2047 0.2047 0.9788 -57.8579 74.2927)" style="fill:#FFFFFF;" width="155.091" height="105.925"/>
				<g>
					<polygon style="fill:#F7F9F9;" points="265.165,384.566 416.973,352.824 243.487,280.882 					"/>
					<path style="fill:#ACA2DD;" d="M389.617,335.267l-65.829,13.764c0,0,5.652-53.044,22.116-58.528
						C362.368,285.019,389.617,335.267,389.617,335.267z"/>
					<path style="fill:#8D85C1;" d="M345.099,320.585c-2.421-12.28-0.493-24.258,0.799-30.078
						c-16.459,5.496-22.109,58.526-22.109,58.526l36.713-7.676C354.51,337.31,347.045,330.457,345.099,320.585z"/>
					<path style="fill:#D7CCFF;" d="M277.913,358.624l82.36-17.22c0,0-30.213-32.886-45.596-38.245
						C299.294,297.799,289.008,322.818,277.913,358.624z"/>
					<path style="fill:#D7CCFF;" d="M332.486,285.652c1.028,4.916-2.124,9.734-7.04,10.762c-4.916,1.028-9.734-2.124-10.762-7.04
						c-1.028-4.916,2.124-9.734,7.04-10.762C326.64,277.585,331.458,280.736,332.486,285.652z"/>
					<path style="fill:#ACA2DD;" d="M301.223,339.253c-5.076-13.835-2.382-25.656,0.399-32.863
						c-8.806,8.023-16.066,27.567-23.709,52.233l31.604-6.608C306.32,349.148,303.358,345.072,301.223,339.253z"/>
				</g>
			</g>
		</g>
	</g>
	<g>
		<polygon style="fill:#341F78;" points="375,142.306 335.075,182.467 352.557,182.467 352.557,209.871 397.443,209.871 
			397.443,182.467 414.925,182.467 		"/>
		<rect x="352.38" y="213.355" style="fill:#341F78;" width="45.535" height="4.607"/>
		<rect x="352.38" y="220.62" style="fill:#341F78;" width="45.535" height="2.303"/>
		<path style="fill:#24175B;" d="M376.461,209.871c-18.043-14.851-9.514-48.808-4.099-64.911l-37.286,37.507h17.482v27.404H376.461z
			"/>
		<path style="fill:#7364AF;" d="M390.728,168.665c-1.753,1.753-6.091,0.257-9.689-3.341c-3.598-3.598-5.094-7.936-3.341-9.689
			s6.091-0.257,9.689,3.341C390.985,162.574,392.481,166.912,390.728,168.665z"/>
	</g>
	<g>
		<g>
			<g>
				<path style="fill:#9281FF;" d="M278.923,135.014c-0.408,0-0.739-0.331-0.739-0.739v-4.573c0-0.408,0.331-0.739,0.739-0.739
					c0.408,0,0.739,0.331,0.739,0.739v4.573C279.662,134.683,279.331,135.014,278.923,135.014z"/>
			</g>
			<g>
				<path style="fill:#9281FF;" d="M282.884,136.054c-0.123,0-0.247-0.031-0.362-0.095c-0.356-0.201-0.481-0.651-0.281-1.007
					l2.247-3.984c0.199-0.355,0.649-0.482,1.007-0.281c0.356,0.201,0.481,0.651,0.281,1.007l-2.247,3.984
					C283.393,135.919,283.143,136.054,282.884,136.054z"/>
			</g>
			<g>
				<path style="fill:#9281FF;" d="M285.826,138.907c-0.25,0-0.494-0.127-0.633-0.357c-0.211-0.349-0.1-0.803,0.25-1.014
					l3.914-2.365c0.35-0.211,0.804-0.099,1.014,0.25c0.211,0.349,0.1,0.803-0.25,1.014l-3.914,2.366
					C286.087,138.872,285.955,138.907,285.826,138.907z"/>
			</g>
			<g>
				<path style="fill:#9281FF;" d="M286.983,142.836c-0.398,0-0.726-0.316-0.738-0.717c-0.012-0.408,0.309-0.748,0.716-0.76
					l4.572-0.137c0.408-0.015,0.749,0.308,0.761,0.717c0.012,0.408-0.309,0.748-0.716,0.76l-4.572,0.137
					C286.998,142.836,286.991,142.836,286.983,142.836z"/>
			</g>
			<g>
				<path style="fill:#9281FF;" d="M290.111,148.954c-0.115,0-0.233-0.027-0.343-0.085l-4.049-2.127
					c-0.362-0.19-0.501-0.636-0.311-0.997c0.191-0.361,0.636-0.501,0.998-0.311l4.049,2.127c0.361,0.19,0.501,0.636,0.311,0.998
					C290.633,148.81,290.376,148.954,290.111,148.954z"/>
			</g>
			<g>
				<path style="fill:#9281FF;" d="M285.781,153.692c-0.242,0-0.48-0.119-0.621-0.338l-2.482-3.841
					c-0.221-0.343-0.123-0.8,0.219-1.021c0.344-0.222,0.8-0.123,1.022,0.22l2.482,3.841c0.221,0.343,0.123,0.8-0.219,1.021
					C286.058,153.654,285.919,153.692,285.781,153.692z"/>
			</g>
			<g>
				<path style="fill:#9281FF;" d="M279.68,155.692c-0.388,0-0.713-0.302-0.737-0.694l-0.274-4.566
					c-0.025-0.407,0.286-0.758,0.693-0.782c0.41-0.032,0.757,0.286,0.782,0.693l0.274,4.565c0.025,0.407-0.286,0.758-0.693,0.782
					C279.71,155.691,279.695,155.692,279.68,155.692z"/>
			</g>
			<g>
				<path style="fill:#9281FF;" d="M273.385,154.436c-0.109,0-0.219-0.024-0.324-0.075c-0.367-0.179-0.519-0.621-0.34-0.988
					l2.004-4.111c0.178-0.367,0.62-0.52,0.988-0.34c0.367,0.179,0.519,0.621,0.34,0.988l-2.004,4.111
					C273.921,154.284,273.658,154.436,273.385,154.436z"/>
			</g>
			<g>
				<path style="fill:#9281FF;" d="M268.519,150.25c-0.235,0-0.466-0.111-0.609-0.32c-0.232-0.336-0.147-0.796,0.189-1.027
					l3.766-2.596c0.336-0.233,0.796-0.148,1.027,0.189c0.232,0.336,0.147,0.796-0.189,1.027l-3.766,2.596
					C268.81,150.208,268.664,150.25,268.519,150.25z"/>
			</g>
			<g>
				<path style="fill:#9281FF;" d="M266.336,144.212c-0.378,0-0.701-0.289-0.735-0.673c-0.036-0.406,0.263-0.766,0.67-0.802
					l4.555-0.411c0.415-0.026,0.766,0.264,0.802,0.669c0.036,0.406-0.263,0.766-0.67,0.802l-4.555,0.411
					C266.381,144.211,266.358,144.212,266.336,144.212z"/>
			</g>
			<g>
				<path style="fill:#9281FF;" d="M271.572,139.763c-0.102,0-0.205-0.021-0.303-0.066l-4.169-1.88
					c-0.372-0.168-0.538-0.605-0.37-0.977c0.168-0.372,0.606-0.537,0.977-0.37l4.169,1.88c0.372,0.168,0.538,0.605,0.37,0.977
					C272.123,139.601,271.853,139.763,271.572,139.763z"/>
			</g>
			<g>
				<path style="fill:#9281FF;" d="M274.15,136.578c-0.227,0-0.451-0.104-0.596-0.302l-2.708-3.686
					c-0.241-0.329-0.171-0.791,0.158-1.033c0.329-0.241,0.791-0.171,1.033,0.158l2.708,3.686c0.241,0.329,0.171,0.791-0.158,1.033
					C274.455,136.532,274.302,136.578,274.15,136.578z"/>
			</g>
		</g>
		<g>
			<g>
				<path style="fill:#9281FF;" d="M176.435,133.907c-0.408,0-0.739-0.331-0.739-0.739v-4.573c0-0.408,0.331-0.739,0.739-0.739
					c0.408,0,0.739,0.331,0.739,0.739v4.573C177.174,133.576,176.843,133.907,176.435,133.907z"/>
			</g>
			<g>
				<path style="fill:#9281FF;" d="M180.396,134.948c-0.123,0-0.247-0.031-0.362-0.095c-0.356-0.201-0.481-0.651-0.281-1.007
					l2.247-3.984c0.199-0.355,0.649-0.482,1.007-0.281c0.356,0.201,0.481,0.651,0.281,1.007l-2.247,3.984
					C180.905,134.812,180.655,134.948,180.396,134.948z"/>
			</g>
			<g>
				<path style="fill:#9281FF;" d="M183.337,137.8c-0.25,0-0.494-0.127-0.633-0.357c-0.211-0.349-0.1-0.803,0.25-1.014l3.914-2.366
					c0.35-0.211,0.804-0.099,1.014,0.25c0.211,0.349,0.1,0.803-0.25,1.014l-3.914,2.366
					C183.599,137.766,183.467,137.8,183.337,137.8z"/>
			</g>
			<g>
				<path style="fill:#9281FF;" d="M184.495,141.729c-0.398,0-0.726-0.316-0.738-0.717c-0.012-0.408,0.309-0.748,0.716-0.76
					l4.572-0.137c0.408-0.015,0.749,0.308,0.761,0.716c0.012,0.408-0.309,0.748-0.716,0.76l-4.572,0.137
					C184.51,141.729,184.503,141.729,184.495,141.729z"/>
			</g>
			<g>
				<path style="fill:#9281FF;" d="M187.622,147.847c-0.115,0-0.233-0.027-0.343-0.085l-4.049-2.127
					c-0.361-0.19-0.501-0.636-0.311-0.997c0.191-0.361,0.636-0.501,0.998-0.311l4.049,2.127c0.361,0.19,0.501,0.636,0.311,0.998
					C188.145,147.704,187.888,147.847,187.622,147.847z"/>
			</g>
			<g>
				<path style="fill:#9281FF;" d="M183.293,152.586c-0.242,0-0.48-0.119-0.621-0.338l-2.482-3.841
					c-0.221-0.343-0.123-0.8,0.219-1.021c0.344-0.222,0.8-0.123,1.022,0.22l2.482,3.841c0.221,0.343,0.123,0.8-0.219,1.021
					C183.57,152.548,183.43,152.586,183.293,152.586z"/>
			</g>
			<g>
				<path style="fill:#9281FF;" d="M177.192,154.585c-0.388,0-0.713-0.302-0.737-0.695l-0.274-4.565
					c-0.024-0.407,0.286-0.758,0.693-0.782c0.41-0.032,0.757,0.286,0.782,0.693l0.274,4.566c0.024,0.407-0.286,0.758-0.693,0.782
					C177.222,154.585,177.207,154.585,177.192,154.585z"/>
			</g>
			<g>
				<path style="fill:#9281FF;" d="M170.896,153.33c-0.109,0-0.219-0.024-0.324-0.075c-0.367-0.179-0.519-0.621-0.34-0.988
					l2.004-4.111c0.179-0.367,0.62-0.52,0.988-0.34c0.367,0.179,0.519,0.621,0.34,0.988l-2.004,4.111
					C171.433,153.177,171.17,153.33,170.896,153.33z"/>
			</g>
			<g>
				<path style="fill:#9281FF;" d="M166.031,149.143c-0.235,0-0.466-0.111-0.609-0.32c-0.232-0.336-0.147-0.796,0.189-1.027
					l3.766-2.596c0.336-0.233,0.796-0.148,1.027,0.189c0.232,0.336,0.147,0.796-0.189,1.027l-3.766,2.596
					C166.322,149.101,166.176,149.143,166.031,149.143z"/>
			</g>
			<g>
				<path style="fill:#9281FF;" d="M163.848,143.106c-0.378,0-0.701-0.289-0.735-0.672c-0.036-0.406,0.263-0.766,0.67-0.802
					l4.555-0.411c0.415-0.026,0.766,0.264,0.802,0.67c0.036,0.406-0.263,0.766-0.67,0.802l-4.555,0.411
					C163.893,143.105,163.87,143.106,163.848,143.106z"/>
			</g>
			<g>
				<path style="fill:#9281FF;" d="M169.084,138.656c-0.102,0-0.205-0.021-0.303-0.066l-4.169-1.88
					c-0.372-0.168-0.538-0.605-0.37-0.977c0.168-0.372,0.606-0.537,0.977-0.37l4.169,1.88c0.372,0.168,0.538,0.605,0.37,0.977
					C169.634,138.494,169.365,138.656,169.084,138.656z"/>
			</g>
			<g>
				<path style="fill:#9281FF;" d="M171.662,135.472c-0.227,0-0.451-0.104-0.596-0.301l-2.708-3.686
					c-0.241-0.329-0.171-0.791,0.158-1.033c0.329-0.241,0.791-0.171,1.033,0.158l2.708,3.686c0.241,0.329,0.171,0.791-0.158,1.033
					C171.967,135.425,171.814,135.472,171.662,135.472z"/>
			</g>
		</g>
		<g>
			<g>
				<path style="fill:#9281FF;" d="M651.789,378.719c-0.408,0-0.739-0.331-0.739-0.739v-4.573c0-0.408,0.331-0.739,0.739-0.739
					c0.408,0,0.739,0.331,0.739,0.739v4.573C652.528,378.388,652.197,378.719,651.789,378.719z"/>
			</g>
			<g>
				<path style="fill:#9281FF;" d="M655.751,379.759c-0.123,0-0.247-0.031-0.362-0.095c-0.356-0.201-0.481-0.651-0.281-1.007
					l2.247-3.984c0.199-0.355,0.649-0.482,1.007-0.281c0.356,0.201,0.481,0.651,0.281,1.007l-2.247,3.984
					C656.259,379.624,656.009,379.759,655.751,379.759z"/>
			</g>
			<g>
				<path style="fill:#9281FF;" d="M658.691,382.612c-0.25,0-0.494-0.127-0.633-0.357c-0.211-0.349-0.099-0.803,0.25-1.014
					l3.914-2.366c0.35-0.211,0.804-0.099,1.014,0.25c0.211,0.349,0.1,0.803-0.25,1.014l-3.914,2.366
					C658.953,382.578,658.821,382.612,658.691,382.612z"/>
			</g>
			<g>
				<path style="fill:#9281FF;" d="M659.849,386.541c-0.397,0-0.726-0.316-0.738-0.717c-0.011-0.408,0.309-0.748,0.717-0.76
					l4.572-0.137c0.408-0.015,0.749,0.308,0.761,0.716c0.012,0.408-0.309,0.748-0.716,0.76l-4.572,0.137
					C659.864,386.541,659.857,386.541,659.849,386.541z"/>
			</g>
			<g>
				<path style="fill:#9281FF;" d="M662.977,392.659c-0.115,0-0.233-0.027-0.343-0.085l-4.049-2.127
					c-0.361-0.19-0.501-0.636-0.311-0.997c0.191-0.361,0.636-0.501,0.998-0.311l4.049,2.127c0.362,0.19,0.501,0.636,0.311,0.997
					C663.499,392.515,663.242,392.659,662.977,392.659z"/>
			</g>
			<g>
				<path style="fill:#9281FF;" d="M658.647,397.398c-0.242,0-0.48-0.119-0.621-0.338l-2.482-3.841
					c-0.221-0.343-0.123-0.8,0.219-1.021c0.343-0.222,0.8-0.123,1.022,0.22l2.482,3.841c0.221,0.343,0.123,0.8-0.219,1.021
					C658.924,397.359,658.785,397.398,658.647,397.398z"/>
			</g>
			<g>
				<path style="fill:#9281FF;" d="M652.546,399.397c-0.388,0-0.713-0.302-0.737-0.695l-0.274-4.565
					c-0.025-0.407,0.286-0.758,0.693-0.782c0.41-0.032,0.757,0.286,0.782,0.693l0.274,4.565c0.025,0.407-0.286,0.758-0.693,0.782
					C652.576,399.397,652.561,399.397,652.546,399.397z"/>
			</g>
			<g>
				<path style="fill:#9281FF;" d="M646.251,398.142c-0.109,0-0.219-0.024-0.324-0.075c-0.367-0.179-0.519-0.621-0.34-0.988
					l2.004-4.111c0.179-0.367,0.62-0.52,0.988-0.34c0.367,0.179,0.519,0.621,0.34,0.988l-2.004,4.111
					C646.787,397.989,646.524,398.142,646.251,398.142z"/>
			</g>
			<g>
				<path style="fill:#9281FF;" d="M641.385,393.955c-0.235,0-0.466-0.112-0.609-0.32c-0.232-0.336-0.147-0.796,0.189-1.027
					l3.766-2.596c0.336-0.233,0.796-0.148,1.027,0.189c0.232,0.336,0.147,0.796-0.189,1.028l-3.766,2.596
					C641.676,393.913,641.53,393.955,641.385,393.955z"/>
			</g>
			<g>
				<path style="fill:#9281FF;" d="M639.202,387.918c-0.378,0-0.701-0.289-0.735-0.672c-0.036-0.406,0.263-0.766,0.669-0.802
					l4.555-0.411c0.415-0.026,0.766,0.264,0.802,0.67c0.036,0.406-0.263,0.766-0.67,0.802l-4.555,0.411
					C639.247,387.917,639.224,387.918,639.202,387.918z"/>
			</g>
			<g>
				<path style="fill:#9281FF;" d="M644.438,383.468c-0.102,0-0.205-0.021-0.303-0.066l-4.169-1.88
					c-0.372-0.168-0.538-0.605-0.37-0.977c0.168-0.372,0.606-0.537,0.977-0.37l4.169,1.88c0.372,0.168,0.537,0.605,0.37,0.977
					C644.989,383.306,644.719,383.468,644.438,383.468z"/>
			</g>
			<g>
				<path style="fill:#9281FF;" d="M647.016,380.284c-0.227,0-0.451-0.104-0.596-0.302l-2.708-3.686
					c-0.241-0.329-0.171-0.791,0.158-1.033c0.329-0.241,0.791-0.171,1.033,0.158l2.708,3.686c0.241,0.329,0.171,0.791-0.158,1.033
					C647.321,380.237,647.168,380.284,647.016,380.284z"/>
			</g>
		</g>
		<g>
			<g>
				<path style="fill:#9281FF;" d="M453.028,227.195c-0.408,0-0.739-0.331-0.739-0.739v-4.573c0-0.408,0.331-0.739,0.739-0.739
					c0.408,0,0.739,0.331,0.739,0.739v4.573C453.766,226.864,453.436,227.195,453.028,227.195z"/>
			</g>
			<g>
				<path style="fill:#9281FF;" d="M456.989,228.235c-0.123,0-0.247-0.031-0.362-0.095c-0.356-0.201-0.481-0.651-0.281-1.007
					l2.247-3.984c0.199-0.355,0.649-0.482,1.007-0.281c0.356,0.201,0.481,0.651,0.281,1.007l-2.247,3.984
					C457.497,228.1,457.247,228.235,456.989,228.235z"/>
			</g>
			<g>
				<path style="fill:#9281FF;" d="M459.93,231.088c-0.25,0-0.494-0.127-0.633-0.357c-0.211-0.349-0.1-0.803,0.25-1.014l3.914-2.366
					c0.35-0.211,0.804-0.099,1.015,0.25c0.211,0.349,0.1,0.803-0.25,1.015l-3.914,2.365
					C460.192,231.053,460.06,231.088,459.93,231.088z"/>
			</g>
			<g>
				<path style="fill:#9281FF;" d="M461.087,235.017c-0.398,0-0.726-0.316-0.738-0.717c-0.012-0.408,0.309-0.748,0.716-0.76
					l4.572-0.137c0.408-0.015,0.749,0.308,0.761,0.717c0.012,0.408-0.309,0.748-0.716,0.76l-4.572,0.137
					C461.102,235.017,461.095,235.017,461.087,235.017z"/>
			</g>
			<g>
				<path style="fill:#9281FF;" d="M464.215,241.135c-0.115,0-0.233-0.027-0.343-0.085l-4.049-2.127
					c-0.362-0.19-0.501-0.636-0.311-0.997c0.191-0.361,0.636-0.501,0.998-0.311l4.049,2.127c0.362,0.19,0.501,0.636,0.311,0.998
					C464.737,240.991,464.48,241.135,464.215,241.135z"/>
			</g>
			<g>
				<path style="fill:#9281FF;" d="M459.886,245.873c-0.243,0-0.48-0.119-0.621-0.338l-2.482-3.841
					c-0.221-0.343-0.123-0.8,0.219-1.021c0.343-0.222,0.8-0.123,1.022,0.22l2.482,3.841c0.221,0.343,0.123,0.8-0.219,1.021
					C460.162,245.835,460.023,245.873,459.886,245.873z"/>
			</g>
			<g>
				<path style="fill:#9281FF;" d="M453.784,247.873c-0.388,0-0.713-0.302-0.737-0.694l-0.274-4.566
					c-0.025-0.407,0.286-0.758,0.693-0.782c0.41-0.032,0.757,0.286,0.782,0.693l0.274,4.565c0.025,0.407-0.286,0.758-0.693,0.782
					C453.814,247.872,453.799,247.873,453.784,247.873z"/>
			</g>
			<g>
				<path style="fill:#9281FF;" d="M447.489,246.617c-0.109,0-0.219-0.024-0.324-0.075c-0.367-0.179-0.519-0.621-0.34-0.988
					l2.004-4.111c0.179-0.367,0.62-0.52,0.988-0.34c0.366,0.179,0.519,0.621,0.34,0.988l-2.004,4.111
					C448.025,246.465,447.762,246.617,447.489,246.617z"/>
			</g>
			<g>
				<path style="fill:#9281FF;" d="M442.624,242.431c-0.235,0-0.466-0.111-0.609-0.32c-0.232-0.336-0.147-0.796,0.189-1.027
					l3.766-2.596c0.336-0.233,0.795-0.148,1.027,0.189c0.232,0.336,0.147,0.796-0.189,1.027l-3.766,2.596
					C442.914,242.389,442.768,242.431,442.624,242.431z"/>
			</g>
			<g>
				<path style="fill:#9281FF;" d="M440.441,236.393c-0.378,0-0.701-0.289-0.735-0.673c-0.036-0.406,0.263-0.766,0.67-0.802
					l4.555-0.411c0.415-0.026,0.766,0.264,0.802,0.669c0.036,0.406-0.263,0.766-0.67,0.802l-4.555,0.411
					C440.485,236.392,440.463,236.393,440.441,236.393z"/>
			</g>
			<g>
				<path style="fill:#9281FF;" d="M445.676,231.944c-0.102,0-0.205-0.021-0.303-0.066l-4.169-1.88
					c-0.372-0.168-0.538-0.605-0.37-0.977c0.168-0.372,0.606-0.537,0.977-0.37l4.169,1.88c0.372,0.168,0.538,0.605,0.37,0.977
					C446.227,231.782,445.958,231.944,445.676,231.944z"/>
			</g>
			<g>
				<path style="fill:#9281FF;" d="M448.255,228.759c-0.227,0-0.451-0.104-0.596-0.302l-2.707-3.686
					c-0.241-0.329-0.171-0.791,0.158-1.033c0.329-0.241,0.791-0.171,1.033,0.158l2.708,3.686c0.241,0.329,0.171,0.791-0.158,1.033
					C448.56,228.713,448.407,228.759,448.255,228.759z"/>
			</g>
		</g>
		<g>
			<g>
				<path style="fill:#9281FF;" d="M640.623,169.415c-0.408,0-0.739-0.331-0.739-0.739v-4.573c0-0.408,0.331-0.739,0.739-0.739
					c0.408,0,0.739,0.331,0.739,0.739v4.573C641.362,169.085,641.031,169.415,640.623,169.415z"/>
			</g>
			<g>
				<path style="fill:#9281FF;" d="M644.584,170.456c-0.123,0-0.247-0.031-0.362-0.095c-0.356-0.201-0.481-0.651-0.281-1.007
					l2.247-3.983c0.199-0.355,0.649-0.482,1.007-0.281c0.356,0.201,0.481,0.651,0.281,1.007l-2.247,3.984
					C645.093,170.321,644.842,170.456,644.584,170.456z"/>
			</g>
			<g>
				<path style="fill:#9281FF;" d="M647.525,173.309c-0.25,0-0.494-0.127-0.633-0.357c-0.211-0.349-0.1-0.804,0.25-1.015
					l3.914-2.365c0.35-0.211,0.804-0.099,1.014,0.25c0.211,0.349,0.1,0.803-0.25,1.014l-3.914,2.365
					C647.787,173.274,647.655,173.309,647.525,173.309z"/>
			</g>
			<g>
				<path style="fill:#9281FF;" d="M648.682,177.238c-0.398,0-0.726-0.316-0.738-0.717c-0.012-0.408,0.309-0.748,0.716-0.761
					l4.572-0.137c0.408-0.015,0.749,0.308,0.761,0.717c0.012,0.408-0.309,0.748-0.716,0.76l-4.572,0.137
					C648.698,177.238,648.69,177.238,648.682,177.238z"/>
			</g>
			<g>
				<path style="fill:#9281FF;" d="M651.81,183.355c-0.115,0-0.233-0.027-0.343-0.085l-4.049-2.127
					c-0.361-0.19-0.501-0.636-0.311-0.998c0.191-0.361,0.636-0.501,0.998-0.311l4.049,2.127c0.362,0.19,0.501,0.636,0.311,0.997
					C652.333,183.212,652.076,183.355,651.81,183.355z"/>
			</g>
			<g>
				<path style="fill:#9281FF;" d="M647.481,188.094c-0.242,0-0.48-0.119-0.621-0.338l-2.482-3.841
					c-0.221-0.343-0.123-0.8,0.219-1.021c0.343-0.222,0.8-0.123,1.022,0.22l2.482,3.841c0.221,0.343,0.123,0.8-0.219,1.021
					C647.757,188.056,647.618,188.094,647.481,188.094z"/>
			</g>
			<g>
				<path style="fill:#9281FF;" d="M641.379,190.094c-0.388,0-0.713-0.302-0.737-0.695l-0.274-4.566
					c-0.025-0.407,0.286-0.758,0.693-0.782c0.41-0.032,0.757,0.286,0.782,0.693l0.274,4.565c0.025,0.407-0.286,0.758-0.693,0.782
					C641.409,190.093,641.394,190.094,641.379,190.094z"/>
			</g>
			<g>
				<path style="fill:#9281FF;" d="M635.084,188.838c-0.109,0-0.219-0.024-0.324-0.075c-0.367-0.179-0.519-0.621-0.34-0.988
					l2.004-4.111c0.179-0.367,0.62-0.52,0.988-0.34c0.366,0.179,0.519,0.621,0.34,0.988l-2.004,4.111
					C635.621,188.686,635.358,188.838,635.084,188.838z"/>
			</g>
			<g>
				<path style="fill:#9281FF;" d="M630.219,184.652c-0.235,0-0.466-0.111-0.609-0.32c-0.232-0.336-0.147-0.796,0.189-1.027
					l3.766-2.596c0.336-0.233,0.796-0.148,1.028,0.189c0.232,0.336,0.147,0.796-0.189,1.027l-3.766,2.596
					C630.509,184.609,630.364,184.652,630.219,184.652z"/>
			</g>
			<g>
				<path style="fill:#9281FF;" d="M628.036,178.614c-0.378,0-0.701-0.289-0.735-0.673c-0.036-0.406,0.263-0.766,0.67-0.802
					l4.555-0.411c0.415-0.026,0.766,0.264,0.802,0.67c0.036,0.406-0.263,0.766-0.67,0.802l-4.555,0.411
					C628.08,178.613,628.058,178.614,628.036,178.614z"/>
			</g>
			<g>
				<path style="fill:#9281FF;" d="M633.272,174.165c-0.102,0-0.205-0.021-0.303-0.066l-4.169-1.88
					c-0.372-0.168-0.538-0.605-0.37-0.977c0.168-0.372,0.606-0.537,0.977-0.37l4.169,1.88c0.372,0.168,0.537,0.605,0.37,0.977
					C633.822,174.003,633.553,174.165,633.272,174.165z"/>
			</g>
			<g>
				<path style="fill:#9281FF;" d="M635.85,170.98c-0.227,0-0.451-0.104-0.596-0.302l-2.707-3.686
					c-0.241-0.329-0.171-0.791,0.158-1.033c0.329-0.241,0.791-0.171,1.033,0.158l2.708,3.686c0.241,0.329,0.171,0.791-0.158,1.033
					C636.155,170.934,636.002,170.98,635.85,170.98z"/>
			</g>
		</g>
		<g>
			<g>
				<path style="fill:#9281FF;" d="M533.984,99.777c-0.408,0-0.739-0.331-0.739-0.739v-4.573c0-0.408,0.331-0.739,0.739-0.739
					c0.408,0,0.739,0.331,0.739,0.739v4.573C534.723,99.446,534.392,99.777,533.984,99.777z"/>
			</g>
			<g>
				<path style="fill:#9281FF;" d="M537.945,100.817c-0.123,0-0.247-0.031-0.362-0.095c-0.356-0.201-0.481-0.651-0.281-1.007
					l2.247-3.983c0.199-0.355,0.649-0.482,1.007-0.281c0.356,0.201,0.481,0.651,0.281,1.007l-2.247,3.983
					C538.454,100.682,538.204,100.817,537.945,100.817z"/>
			</g>
			<g>
				<path style="fill:#9281FF;" d="M540.886,103.67c-0.25,0-0.494-0.127-0.633-0.357c-0.211-0.349-0.099-0.803,0.25-1.015
					l3.914-2.366c0.35-0.211,0.804-0.099,1.014,0.25c0.211,0.349,0.1,0.803-0.25,1.014l-3.914,2.366
					C541.148,103.636,541.016,103.67,540.886,103.67z"/>
			</g>
			<g>
				<path style="fill:#9281FF;" d="M542.044,107.599c-0.398,0-0.726-0.316-0.738-0.717c-0.012-0.408,0.309-0.748,0.716-0.761
					l4.572-0.137c0.408-0.015,0.749,0.308,0.761,0.716c0.012,0.408-0.309,0.748-0.716,0.761l-4.572,0.137
					C542.059,107.599,542.052,107.599,542.044,107.599z"/>
			</g>
			<g>
				<path style="fill:#9281FF;" d="M545.172,113.717c-0.115,0-0.233-0.027-0.343-0.085l-4.049-2.127
					c-0.361-0.19-0.501-0.636-0.311-0.998c0.191-0.361,0.636-0.501,0.998-0.311l4.049,2.127c0.362,0.19,0.501,0.636,0.311,0.997
					C545.694,113.573,545.437,113.717,545.172,113.717z"/>
			</g>
			<g>
				<path style="fill:#9281FF;" d="M540.842,118.455c-0.242,0-0.48-0.119-0.621-0.338l-2.482-3.841
					c-0.221-0.343-0.123-0.8,0.219-1.021c0.343-0.222,0.8-0.123,1.022,0.22l2.482,3.841c0.222,0.343,0.123,0.8-0.219,1.021
					C541.119,118.417,540.979,118.455,540.842,118.455z"/>
			</g>
			<g>
				<path style="fill:#9281FF;" d="M534.741,120.455c-0.388,0-0.713-0.302-0.737-0.695l-0.274-4.565
					c-0.025-0.407,0.286-0.758,0.693-0.782c0.41-0.032,0.757,0.286,0.782,0.693l0.274,4.565c0.025,0.407-0.286,0.758-0.693,0.782
					C534.771,120.455,534.756,120.455,534.741,120.455z"/>
			</g>
			<g>
				<path style="fill:#9281FF;" d="M528.445,119.2c-0.109,0-0.219-0.024-0.324-0.075c-0.367-0.179-0.519-0.621-0.34-0.988
					l2.004-4.111c0.179-0.367,0.62-0.52,0.988-0.34c0.367,0.179,0.519,0.621,0.34,0.988l-2.004,4.111
					C528.982,119.047,528.719,119.2,528.445,119.2z"/>
			</g>
			<g>
				<path style="fill:#9281FF;" d="M523.58,115.013c-0.235,0-0.466-0.112-0.609-0.32c-0.232-0.336-0.147-0.796,0.189-1.027
					l3.766-2.596c0.336-0.233,0.795-0.148,1.027,0.189c0.232,0.336,0.147,0.796-0.189,1.027l-3.766,2.596
					C523.871,114.971,523.725,115.013,523.58,115.013z"/>
			</g>
			<g>
				<path style="fill:#9281FF;" d="M521.397,108.976c-0.378,0-0.701-0.289-0.735-0.673c-0.036-0.406,0.263-0.766,0.669-0.802
					l4.555-0.411c0.415-0.026,0.766,0.264,0.802,0.67c0.036,0.406-0.263,0.766-0.67,0.802l-4.555,0.411
					C521.442,108.975,521.419,108.976,521.397,108.976z"/>
			</g>
			<g>
				<path style="fill:#9281FF;" d="M526.633,104.526c-0.102,0-0.205-0.021-0.303-0.066l-4.169-1.88
					c-0.372-0.168-0.538-0.605-0.37-0.977c0.168-0.372,0.606-0.537,0.977-0.37l4.169,1.88c0.372,0.168,0.537,0.605,0.37,0.977
					C527.184,104.364,526.914,104.526,526.633,104.526z"/>
			</g>
			<g>
				<path style="fill:#9281FF;" d="M529.211,101.341c-0.227,0-0.451-0.104-0.596-0.302l-2.708-3.686
					c-0.241-0.329-0.171-0.791,0.158-1.033c0.329-0.241,0.791-0.171,1.033,0.158l2.707,3.686c0.241,0.329,0.171,0.791-0.158,1.033
					C529.516,101.295,529.363,101.341,529.211,101.341z"/>
			</g>
		</g>
		<g>
			<g>
				<path style="fill:#9281FF;" d="M358.956,41.755c-0.408,0-0.739-0.331-0.739-0.739v-4.573c0-0.408,0.331-0.739,0.739-0.739
					c0.408,0,0.739,0.331,0.739,0.739v4.573C359.694,41.424,359.363,41.755,358.956,41.755z"/>
			</g>
			<g>
				<path style="fill:#9281FF;" d="M362.917,42.796c-0.123,0-0.247-0.031-0.362-0.095c-0.356-0.201-0.481-0.651-0.281-1.007
					l2.247-3.984c0.199-0.355,0.649-0.482,1.007-0.281c0.356,0.201,0.481,0.651,0.281,1.007l-2.247,3.984
					C363.425,42.66,363.175,42.796,362.917,42.796z"/>
			</g>
			<g>
				<path style="fill:#9281FF;" d="M365.858,45.648c-0.25,0-0.494-0.127-0.633-0.357c-0.211-0.349-0.099-0.803,0.25-1.014
					l3.914-2.366c0.35-0.211,0.804-0.099,1.014,0.25c0.211,0.349,0.1,0.803-0.25,1.014l-3.914,2.365
					C366.119,45.614,365.987,45.648,365.858,45.648z"/>
			</g>
			<g>
				<path style="fill:#9281FF;" d="M367.015,49.577c-0.397,0-0.726-0.316-0.738-0.717c-0.012-0.408,0.309-0.748,0.716-0.761
					l4.572-0.137c0.408-0.015,0.749,0.308,0.761,0.716c0.012,0.408-0.309,0.748-0.716,0.761l-4.572,0.137
					C367.03,49.577,367.023,49.577,367.015,49.577z"/>
			</g>
			<g>
				<path style="fill:#9281FF;" d="M370.143,55.695c-0.115,0-0.233-0.027-0.343-0.085l-4.049-2.127
					c-0.362-0.19-0.501-0.636-0.311-0.998c0.191-0.361,0.636-0.501,0.998-0.311l4.049,2.127c0.362,0.19,0.501,0.636,0.311,0.998
					C370.665,55.551,370.408,55.695,370.143,55.695z"/>
			</g>
			<g>
				<path style="fill:#9281FF;" d="M365.814,60.434c-0.242,0-0.48-0.119-0.621-0.338l-2.482-3.841
					c-0.221-0.343-0.123-0.8,0.219-1.021c0.343-0.222,0.8-0.123,1.022,0.22l2.482,3.841c0.221,0.343,0.123,0.8-0.219,1.021
					C366.09,60.395,365.951,60.434,365.814,60.434z"/>
			</g>
			<g>
				<path style="fill:#9281FF;" d="M359.712,62.433c-0.388,0-0.713-0.302-0.737-0.694l-0.274-4.565
					c-0.025-0.407,0.286-0.758,0.693-0.782c0.41-0.032,0.757,0.286,0.782,0.693l0.274,4.565c0.025,0.407-0.286,0.758-0.693,0.782
					C359.742,62.433,359.727,62.433,359.712,62.433z"/>
			</g>
			<g>
				<path style="fill:#9281FF;" d="M353.417,61.178c-0.109,0-0.219-0.024-0.324-0.075c-0.366-0.179-0.519-0.621-0.34-0.988
					l2.004-4.111c0.179-0.367,0.62-0.52,0.988-0.34c0.367,0.179,0.519,0.621,0.34,0.988l-2.004,4.111
					C353.953,61.025,353.69,61.178,353.417,61.178z"/>
			</g>
			<g>
				<path style="fill:#9281FF;" d="M348.551,56.991c-0.235,0-0.466-0.111-0.609-0.32c-0.232-0.336-0.147-0.796,0.189-1.027
					l3.766-2.596c0.336-0.233,0.796-0.148,1.027,0.189c0.232,0.336,0.147,0.796-0.189,1.028l-3.766,2.596
					C348.842,56.949,348.696,56.991,348.551,56.991z"/>
			</g>
			<g>
				<path style="fill:#9281FF;" d="M346.368,50.954c-0.378,0-0.701-0.289-0.735-0.673c-0.036-0.406,0.263-0.765,0.669-0.802
					l4.555-0.411c0.415-0.026,0.766,0.264,0.802,0.67c0.036,0.406-0.263,0.765-0.67,0.802l-4.555,0.411
					C346.413,50.953,346.391,50.954,346.368,50.954z"/>
			</g>
			<g>
				<path style="fill:#9281FF;" d="M351.604,46.504c-0.102,0-0.205-0.021-0.303-0.066l-4.169-1.88
					c-0.372-0.168-0.538-0.605-0.37-0.977c0.168-0.372,0.606-0.537,0.977-0.37l4.169,1.88c0.372,0.168,0.538,0.605,0.37,0.977
					C352.155,46.342,351.886,46.504,351.604,46.504z"/>
			</g>
			<g>
				<path style="fill:#9281FF;" d="M354.183,43.32c-0.227,0-0.451-0.104-0.596-0.302l-2.708-3.686
					c-0.241-0.329-0.171-0.791,0.158-1.033c0.329-0.241,0.791-0.171,1.033,0.158l2.707,3.686c0.241,0.329,0.171,0.791-0.158,1.033
					C354.487,43.273,354.335,43.32,354.183,43.32z"/>
			</g>
		</g>
		<g>
			<g>
				<path style="fill:#9281FF;" d="M81.941,309.239c-0.408,0-0.739-0.331-0.739-0.739v-4.573c0-0.408,0.331-0.739,0.739-0.739
					c0.408,0,0.739,0.331,0.739,0.739v4.573C82.68,308.909,82.349,309.239,81.941,309.239z"/>
			</g>
			<g>
				<path style="fill:#9281FF;" d="M85.902,310.28c-0.123,0-0.247-0.031-0.362-0.095c-0.356-0.201-0.481-0.651-0.281-1.007
					l2.247-3.984c0.199-0.355,0.649-0.482,1.007-0.281c0.356,0.201,0.481,0.651,0.281,1.007l-2.247,3.984
					C86.411,310.145,86.161,310.28,85.902,310.28z"/>
			</g>
			<g>
				<path style="fill:#9281FF;" d="M88.843,313.132c-0.25,0-0.494-0.127-0.633-0.357c-0.211-0.349-0.1-0.803,0.25-1.014l3.914-2.366
					c0.35-0.211,0.804-0.099,1.014,0.25c0.211,0.349,0.1,0.803-0.25,1.014l-3.914,2.366
					C89.105,313.098,88.973,313.132,88.843,313.132z"/>
			</g>
			<g>
				<path style="fill:#9281FF;" d="M90.001,317.061c-0.398,0-0.726-0.316-0.738-0.717c-0.012-0.408,0.309-0.748,0.716-0.76
					l4.571-0.137c0.408-0.015,0.749,0.308,0.761,0.717c0.012,0.408-0.309,0.748-0.716,0.76l-4.572,0.137
					C90.016,317.061,90.009,317.061,90.001,317.061z"/>
			</g>
			<g>
				<path style="fill:#9281FF;" d="M93.129,323.179c-0.115,0-0.233-0.027-0.343-0.085l-4.049-2.127
					c-0.362-0.19-0.501-0.636-0.311-0.997c0.191-0.361,0.636-0.501,0.998-0.311l4.049,2.127c0.361,0.19,0.501,0.636,0.311,0.998
					C93.651,323.036,93.394,323.179,93.129,323.179z"/>
			</g>
			<g>
				<path style="fill:#9281FF;" d="M88.799,327.918c-0.243,0-0.48-0.119-0.621-0.338l-2.482-3.841
					c-0.221-0.343-0.123-0.8,0.219-1.021c0.344-0.222,0.8-0.123,1.022,0.22l2.482,3.841c0.222,0.343,0.123,0.8-0.219,1.021
					C89.076,327.88,88.937,327.918,88.799,327.918z"/>
			</g>
			<g>
				<path style="fill:#9281FF;" d="M82.698,329.918c-0.388,0-0.713-0.302-0.737-0.694l-0.274-4.566
					c-0.024-0.407,0.286-0.758,0.693-0.782c0.41-0.032,0.757,0.286,0.782,0.693l0.274,4.565c0.025,0.407-0.286,0.758-0.693,0.782
					C82.728,329.917,82.713,329.918,82.698,329.918z"/>
			</g>
			<g>
				<path style="fill:#9281FF;" d="M76.403,328.662c-0.109,0-0.219-0.024-0.324-0.075c-0.367-0.179-0.519-0.621-0.34-0.988
					l2.004-4.111c0.178-0.367,0.62-0.52,0.988-0.34c0.367,0.179,0.519,0.621,0.34,0.988l-2.004,4.111
					C76.939,328.509,76.676,328.662,76.403,328.662z"/>
			</g>
			<g>
				<path style="fill:#9281FF;" d="M71.537,324.475c-0.235,0-0.466-0.111-0.609-0.32c-0.232-0.336-0.147-0.796,0.189-1.027
					l3.766-2.596c0.336-0.233,0.795-0.148,1.027,0.189c0.232,0.336,0.147,0.796-0.189,1.027l-3.766,2.596
					C71.828,324.433,71.682,324.475,71.537,324.475z"/>
			</g>
			<g>
				<path style="fill:#9281FF;" d="M69.354,318.438c-0.378,0-0.701-0.289-0.735-0.673c-0.036-0.406,0.263-0.766,0.67-0.802
					l4.555-0.411c0.415-0.026,0.766,0.264,0.802,0.669c0.036,0.406-0.263,0.766-0.67,0.802l-4.555,0.411
					C69.399,318.437,69.376,318.438,69.354,318.438z"/>
			</g>
			<g>
				<path style="fill:#9281FF;" d="M74.59,313.988c-0.102,0-0.205-0.021-0.303-0.066l-4.169-1.88
					c-0.372-0.168-0.537-0.605-0.37-0.977c0.168-0.372,0.606-0.537,0.977-0.37l4.169,1.88c0.372,0.168,0.538,0.605,0.37,0.977
					C75.141,313.826,74.871,313.988,74.59,313.988z"/>
			</g>
			<g>
				<path style="fill:#9281FF;" d="M77.169,310.804c-0.227,0-0.451-0.104-0.596-0.302l-2.707-3.686
					c-0.241-0.329-0.171-0.791,0.158-1.033c0.329-0.241,0.791-0.171,1.033,0.158l2.708,3.686c0.241,0.329,0.171,0.791-0.158,1.033
					C77.473,310.757,77.32,310.804,77.169,310.804z"/>
			</g>
		</g>
		<circle style="fill:none;stroke:#9281FF;stroke-miterlimit:10;" cx="88.704" cy="212.464" r="13.04"/>
		
			<ellipse transform="matrix(0.1602 -0.9871 0.9871 0.1602 -314.3696 379.3699)" style="fill:none;stroke:#9281FF;stroke-miterlimit:10;" cx="65.763" cy="374.433" rx="7.356" ry="7.355"/>
		
			<ellipse transform="matrix(0.7071 -0.7071 0.7071 0.7071 39.4993 222.4253)" style="fill:none;stroke:#9281FF;stroke-miterlimit:10;" cx="288.241" cy="63.533" rx="8.579" ry="8.579"/>
		<circle style="fill:none;stroke:#9281FF;stroke-miterlimit:10;" cx="454.464" cy="111.863" r="7.337"/>
		<circle style="fill:none;stroke:#9281FF;stroke-miterlimit:10;" cx="615.133" cy="114.599" r="13.257"/>
		<circle style="fill:none;stroke:#9281FF;stroke-miterlimit:10;" cx="682.087" cy="306.27" r="11.225"/>
		<path style="fill:none;stroke:#9281FF;stroke-miterlimit:10;" d="M102.021,426.921c0,3.014-2.444,5.458-5.458,5.458
			c-3.014,0-5.458-2.444-5.458-5.458c0-3.014,2.444-5.458,5.458-5.458C99.577,421.463,102.021,423.907,102.021,426.921z"/>
		<path style="fill:none;stroke:#9281FF;stroke-miterlimit:10;" d="M112.898,115.013c0,3.014-2.444,5.458-5.458,5.458
			s-5.458-2.444-5.458-5.458c0-3.014,2.444-5.458,5.458-5.458S112.898,111.999,112.898,115.013z"/>
	</g>
	<g>
		<path style="fill:#F2C73C;" d="M207.801,333.892l-2.465-6.211c-0.879-2.214-3.019-3.667-5.401-3.667h-23.69v9.878v3.824v94.733
			h161.116v-98.557H207.801z"/>
		<path style="fill:#D8AE36;" d="M292.475,419.219c-61.96-22.334-101.119-71.231-116.231-93.206v7.879v3.824v94.733h152.932
			C319.293,428.886,307.229,424.537,292.475,419.219z"/>
	</g>
	<g>
		<path style="fill:#9281FF;" d="M426.357,108.854l-0.012-0.005c1.063-2.312,1.672-4.877,1.672-7.589
			c0-9.018-6.563-16.485-15.169-17.934c-0.945-18.559-16.292-33.316-35.086-33.316c-19.403,0-35.133,15.729-35.133,35.133
			c0,0.775,0.034,1.542,0.083,2.305c-0.028,0-0.055-0.004-0.083-0.004c-10.244,0-18.548,8.304-18.548,18.548
			c0,0.421,0.035,0.832,0.063,1.246c-20.01,4.801-19.861,22.872-19.861,22.872l141.433-1.637
			C444.42,107.383,426.357,108.854,426.357,108.854z"/>
		<path style="fill:#8078EF;" d="M374.016,128.963c-13.032-0.189-22.134-9.237-20.922-21.364
			c1.212-12.127,16.962-13.873,16.962-13.873s-10.355-7.231-6.899-23.35c1.825-8.514,8.393-15.581,14.185-20.355
			c-19.208,0.226-34.712,15.86-34.712,35.122c0,0.775,0.034,1.542,0.083,2.305c-0.028,0-0.055-0.004-0.083-0.004
			c-10.244,0-18.548,8.304-18.548,18.548c0,0.421,0.035,0.832,0.063,1.246c-20.01,4.801-19.861,22.872-19.861,22.872l73.818-0.855
			C376.519,129.082,375.136,128.979,374.016,128.963z"/>
	</g>
</g>
<g id="DESIGNED_BY_FREEPIK">
	<g>
		<g id="XMLID_319_">
			<g id="XMLID_338_">
				<path id="XMLID_346_" style="fill:#A5B7C6;" d="M385.104,465.465c-0.432,0.443-0.803,0.931-1.108,1.453l-0.465-0.241
					c-0.067-0.298-0.349-0.503-0.659-0.466c-0.331,0.039-0.568,0.339-0.529,0.67c0.039,0.331,0.339,0.568,0.67,0.529
					c0.066-0.008,0.127-0.026,0.184-0.052l0.451,0.234c-0.251,0.554-0.433,1.139-0.539,1.744l0.746,0.132
					c0.23-1.306,0.85-2.507,1.792-3.473L385.104,465.465z"/>
				<path id="XMLID_345_" style="fill:#A5B7C6;" d="M390.592,463.163c-0.171,0-0.341,0.006-0.51,0.017l-0.074-0.626
					c0.188-0.149,0.296-0.389,0.266-0.645c-0.046-0.393-0.402-0.674-0.795-0.628c-0.393,0.046-0.674,0.402-0.628,0.795
					c0.03,0.254,0.189,0.461,0.404,0.564l0.074,0.624c-0.714,0.116-1.403,0.332-2.06,0.646l0.327,0.684
					c0.934-0.447,1.942-0.673,2.995-0.673c0.496,0,0.993,0.053,1.475,0.158l0.161-0.741
					C391.692,463.222,391.142,463.163,390.592,463.163z"/>
				<path id="XMLID_344_" style="fill:#A5B7C6;" d="M397.194,465.711c0.331-0.04,0.566-0.341,0.526-0.672
					c-0.04-0.331-0.341-0.566-0.672-0.526c-0.309,0.038-0.535,0.304-0.53,0.609l-0.416,0.363c-0.418-0.43-0.889-0.813-1.408-1.139
					l-0.404,0.641c1.134,0.715,2.021,1.726,2.563,2.925l0.69-0.313c-0.251-0.554-0.567-1.072-0.942-1.545l0.402-0.351
					C397.065,465.716,397.129,465.719,397.194,465.711z"/>
				<path id="XMLID_343_" style="fill:#A5B7C6;" d="M390.044,473.372c-0.386,0.023-0.775,0.035-1.157,0.035
					c-0.88,0-1.733-0.061-2.478-0.179c-0.39-0.062-0.846-0.155-1.27-0.292c1.046,1.861,3.069,3.125,5.388,3.125
					c2.855,0,5.262-1.916,5.95-4.504c-0.682,0.449-1.505,0.825-2.459,1.123C392.839,473.047,391.463,473.286,390.044,473.372z"/>
				<path id="XMLID_339_" style="fill:#A5B7C6;" d="M390.592,464.68c-3.352,0-6.08,2.666-6.08,5.943
					c0,0.426,0.046,0.849,0.137,1.261c0.673,0.483,2.706,0.89,5.348,0.731c2.879-0.173,5.297-0.957,6.672-2.159
					c-0.006-0.195-0.021-0.39-0.045-0.582C396.244,466.913,393.65,464.68,390.592,464.68z M388.432,471.194
					c-1.02,0-1.85-0.83-1.85-1.85c0-1.02,0.83-1.85,1.85-1.85c1.02,0,1.85,0.83,1.85,1.85
					C390.282,470.365,389.452,471.194,388.432,471.194z M393.17,470.286c-0.75,0-1.36-0.61-1.36-1.36s0.61-1.361,1.36-1.361
					c0.75,0,1.361,0.61,1.361,1.361S393.92,470.286,393.17,470.286z"/>
			</g>
			<path id="XMLID_336_" style="fill:#A5B7C6;" d="M406.595,466.547c-0.295-0.116-0.805-0.309-1.382-0.237
				c-0.551,0.069-0.844,0.341-0.844,1.007v0.866h2.228v1.717h-2.228v5.455h-1.932v-5.455h-1.34v-1.717h1.34v-0.888
				c0-1.68,0.896-2.783,2.568-2.783c0.643,0,1.157,0.122,1.59,0.308L406.595,466.547z"/>
			<path id="XMLID_334_" style="fill:#A5B7C6;" d="M411.298,469.879c-0.177-0.03-0.358-0.046-0.526-0.046
				c-0.895,0-1.51,0.548-1.51,1.614v3.908h-1.932v-7.172h1.873v0.785c0.451-0.673,1.14-0.977,2.021-0.977
				c0.414,0,0.848,0.128,1.094,0.337L411.298,469.879z"/>
			<path id="XMLID_331_" style="fill:#A5B7C6;" d="M418.965,471.757c0,0.222-0.015,0.489-0.037,0.651h-5.085
				c0.207,1.036,0.933,1.488,1.843,1.488c0.622,0,1.295-0.252,1.813-0.688l1.133,1.243c-0.814,0.748-1.85,1.088-3.057,1.088
				c-2.198,0-3.723-1.495-3.723-3.753c0-2.258,1.48-3.797,3.627-3.797C417.544,467.99,418.958,469.522,418.965,471.757z
				 M413.851,471.091h3.175c-0.177-0.918-0.733-1.436-1.562-1.436C414.554,469.655,414.021,470.203,413.851,471.091z"/>
			<path id="XMLID_328_" style="fill:#A5B7C6;" d="M426.618,471.757c0,0.222-0.015,0.489-0.037,0.651h-5.085
				c0.207,1.036,0.932,1.488,1.843,1.488c0.622,0,1.295-0.252,1.814-0.688l1.132,1.243c-0.814,0.748-1.85,1.088-3.057,1.088
				c-2.198,0-3.723-1.495-3.723-3.753c0-2.258,1.48-3.797,3.627-3.797C425.197,467.99,426.611,469.522,426.618,471.757z
				 M421.504,471.091h3.175c-0.178-0.918-0.733-1.436-1.562-1.436C422.207,469.655,421.674,470.203,421.504,471.091z"/>
			<path id="XMLID_325_" style="fill:#A5B7C6;" d="M434.964,471.764c0,2.154-1.495,3.775-3.471,3.775
				c-0.962,0-1.643-0.378-2.109-0.933v3.708h-1.924v-10.133h1.887v0.792c0.466-0.585,1.155-0.984,2.139-0.984
				C433.469,467.99,434.964,469.61,434.964,471.764z M429.287,471.764c0,1.132,0.747,1.976,1.843,1.976
				c1.14,0,1.85-0.881,1.85-1.976c0-1.095-0.711-1.976-1.85-1.976C430.035,469.788,429.287,470.632,429.287,471.764z"/>
			<path id="XMLID_322_" style="fill:#A5B7C6;" d="M438.067,465.836c0,0.696-0.54,1.229-1.236,1.229
				c-0.696,0-1.229-0.533-1.229-1.229c0-0.696,0.533-1.243,1.229-1.243C437.527,464.592,438.067,465.14,438.067,465.836z
				 M437.809,475.354h-1.932v-7.172h1.932V475.354z"/>
			<path id="XMLID_320_" style="fill:#A5B7C6;" d="M441.032,470.736l2.702-2.554h2.368l-3.479,3.375l3.501,3.797h-2.376
				l-2.716-2.901v2.901H439.1v-10.658h1.932V470.736z"/>
		</g>
		<g>
			<path style="fill:#A5B7C6;" d="M309.412,475.289v-1.055c-0.527,0.718-1.391,1.23-2.387,1.23c-1.846,0-3.149-1.406-3.149-3.706
				c0-2.256,1.289-3.721,3.149-3.721c0.952,0,1.816,0.469,2.387,1.245v-3.765h1.099v9.77H309.412z M309.412,473.37v-3.208
				c-0.395-0.615-1.245-1.143-2.124-1.143c-1.421,0-2.27,1.172-2.27,2.739c0,1.567,0.85,2.724,2.27,2.724
				C308.168,474.483,309.017,473.986,309.412,473.37z"/>
			<path style="fill:#A5B7C6;" d="M311.932,471.744c0-2.051,1.465-3.706,3.486-3.706c2.139,0,3.398,1.67,3.398,3.794v0.279h-5.727
				c0.088,1.333,1.026,2.446,2.549,2.446c0.806,0,1.626-0.322,2.182-0.894l0.527,0.718c-0.703,0.703-1.655,1.084-2.812,1.084
				C313.44,475.465,311.932,473.956,311.932,471.744z M315.404,468.947c-1.509,0-2.256,1.274-2.315,2.358h4.643
				C317.718,470.25,317.015,468.947,315.404,468.947z"/>
			<path style="fill:#A5B7C6;" d="M319.607,474.351l0.571-0.791c0.469,0.542,1.362,1.011,2.329,1.011c1.084,0,1.67-0.513,1.67-1.216
				c0-1.714-4.38-0.659-4.38-3.281c0-1.098,0.952-2.036,2.636-2.036c1.201,0,2.051,0.454,2.622,1.026l-0.513,0.762
				c-0.424-0.513-1.201-0.894-2.109-0.894c-0.967,0-1.567,0.483-1.567,1.113c0,1.552,4.38,0.527,4.38,3.281
				c0,1.187-0.952,2.138-2.783,2.138C321.306,475.465,320.325,475.113,319.607,474.351z"/>
			<path style="fill:#A5B7C6;" d="M326.477,466.471c0-0.41,0.337-0.747,0.732-0.747c0.41,0,0.747,0.337,0.747,0.747
				c0,0.41-0.337,0.732-0.747,0.732C326.814,467.203,326.477,466.881,326.477,466.471z M326.667,475.289v-7.075h1.099v7.075H326.667
				z"/>
			<path style="fill:#A5B7C6;" d="M329.582,477.105l0.556-0.82c0.586,0.703,1.289,0.967,2.3,0.967c1.172,0,2.27-0.571,2.27-2.124
				v-1.011c-0.513,0.718-1.377,1.26-2.373,1.26c-1.845,0-3.149-1.377-3.149-3.662c0-2.27,1.289-3.677,3.149-3.677
				c0.952,0,1.802,0.469,2.373,1.245v-1.069h1.099v6.87c0,2.344-1.641,3.076-3.369,3.076
				C331.237,478.16,330.417,477.926,329.582,477.105z M334.709,473.253v-3.091c-0.381-0.615-1.23-1.143-2.109-1.143
				c-1.421,0-2.27,1.128-2.27,2.695c0,1.553,0.849,2.695,2.27,2.695C333.478,474.41,334.328,473.868,334.709,473.253z"/>
			<path style="fill:#A5B7C6;" d="M342.413,475.289v-4.629c0-1.245-0.63-1.641-1.582-1.641c-0.865,0-1.685,0.527-2.095,1.099v5.17
				h-1.099v-7.075h1.099v1.025c0.498-0.586,1.465-1.201,2.519-1.201c1.48,0,2.256,0.747,2.256,2.285v4.966H342.413z"/>
			<path style="fill:#A5B7C6;" d="M344.932,471.744c0-2.051,1.465-3.706,3.486-3.706c2.138,0,3.398,1.67,3.398,3.794v0.279h-5.727
				c0.088,1.333,1.025,2.446,2.549,2.446c0.806,0,1.626-0.322,2.183-0.894l0.527,0.718c-0.703,0.703-1.655,1.084-2.812,1.084
				C346.441,475.465,344.932,473.956,344.932,471.744z M348.404,468.947c-1.509,0-2.256,1.274-2.314,2.358h4.643
				C350.718,470.25,350.015,468.947,348.404,468.947z"/>
			<path style="fill:#A5B7C6;" d="M358.35,475.289v-1.055c-0.527,0.718-1.392,1.23-2.388,1.23c-1.846,0-3.149-1.406-3.149-3.706
				c0-2.256,1.289-3.721,3.149-3.721c0.952,0,1.817,0.469,2.388,1.245v-3.765h1.098v9.77H358.35z M358.35,473.37v-3.208
				c-0.396-0.615-1.245-1.143-2.124-1.143c-1.421,0-2.27,1.172-2.27,2.739c0,1.567,0.849,2.724,2.27,2.724
				C357.105,474.483,357.954,473.986,358.35,473.37z"/>
			<path style="fill:#A5B7C6;" d="M364.692,475.289v-9.77h1.099v3.765c0.572-0.776,1.421-1.245,2.388-1.245
				c1.845,0,3.149,1.465,3.149,3.721c0,2.299-1.304,3.706-3.149,3.706c-0.996,0-1.86-0.513-2.388-1.23v1.055H364.692z
				 M367.9,474.483c1.436,0,2.286-1.157,2.286-2.724c0-1.568-0.85-2.739-2.286-2.739c-0.864,0-1.728,0.527-2.109,1.143v3.208
				C366.171,473.986,367.036,474.483,367.9,474.483z"/>
			<path style="fill:#A5B7C6;" d="M372.529,477.061c0.161,0.073,0.425,0.117,0.601,0.117c0.483,0,0.806-0.161,1.055-0.747
				l0.469-1.069l-2.959-7.148h1.187l2.358,5.8l2.344-5.8h1.201l-3.545,8.51c-0.425,1.025-1.143,1.421-2.08,1.435
				c-0.234,0-0.601-0.044-0.806-0.103L372.529,477.061z"/>
		</g>
	</g>
</g>
</svg>
